<?xml version="1.0" standalone="no"?>
<!DOCTYPE svg PUBLIC "-//W3C//DTD SVG 20010904//EN"
 "http://www.w3.org/TR/2001/REC-SVG-20010904/DTD/svg10.dtd">
<svg version="1.0" xmlns="http://www.w3.org/2000/svg"
 width="500.000000pt" height="500.000000pt" viewBox="0 0 500.000000 500.000000"
 preserveAspectRatio="xMidYMid meet">
<metadata>
Created by potrace 1.14, written by Peter Selinger 2001-2017
</metadata>
<g transform="translate(0.000000,500.000000) scale(0.100000,-0.100000)"
fill="#000000" stroke="none">
<path d="M0 4156 c0 -590 3 -746 13 -747 6 -1 23 -2 37 -4 14 -1 59 -5 100 -9
41 -4 102 -11 135 -16 33 -5 76 -11 95 -14 391 -58 858 -219 1223 -422 92 -52
315 -190 327 -204 3 -3 36 -28 74 -54 38 -27 110 -83 160 -125 600 -497 1018
-1154 1210 -1901 39 -150 81 -382 92 -505 4 -44 8 -91 9 -105 2 -14 3 -31 4
-37 1 -10 160 -13 761 -13 l760 0 -5 93 c-3 50 -7 110 -10 132 -2 22 -7 67
-10 100 -9 92 -18 151 -46 315 -148 870 -541 1713 -1114 2394 -33 39 -64 76
-70 82 -5 6 -46 51 -89 98 -222 245 -526 515 -782 696 -88 62 -325 218 -344
227 -8 4 -17 9 -20 13 -8 10 -195 113 -320 177 -431 220 -941 396 -1385 478
-258 49 -482 77 -707 90 l-98 6 0 -745z"/>
</g>
</svg>
